:SAMPLES-PER-SECOND 30
:FULLY-SPECIFIED
:DEGREES
143
root  0.0145314 37.6848 -10.9597 -7.41727 50.4684 -0.708314
RightUpLeg  -24.0206 -11.8544 1.85951
RightLeg  15.2683 -2.61437 0.824979
RightFoot  4.2881 0.498822 -3.44675
RightToes  0.00048216 0.542163 -0.142577
Spine  11.8567 -1.77448 5.26591
Spine1  13.3158 -1.15463 -0.859952
HEad  -2.31277 10.3736 -11.1704
LeftShoulder1  8.49677 -12.9241 -45.0739
LeftArm  -15.2776 21.5957 -22.7566
LeftForeArm  98.1672 -78.6818 -110.211
LeftHand  -0.25398 0.0180481 5.50724
RightShoulder  4.76289 8.47423 33.8164
RightArm  -14.6939 -26.8377 26.498
RightForeArm  65.878 74.8097 126.365
RightHand  1.3948 -17.8111 -13.6303
LeftUpLeg  29.5388 9.87374 5.11613
LeftLeg  18.2452 -7.73026 -2.58401
LeftFoot  -15.1042 -0.178253 -8.64811
LeftToes  1.06248e-005 4.65855e-005 -8.185e-006
144
root  1.39185 37.5072 -9.7307 -9.98794 51.6382 -2.66671
RightUpLeg  -24.5507 -13.1156 3.38114
RightLeg  22.7368 -1.13581 -0.999602
RightFoot  5.6337 0.86514 -5.56043
RightToes  0.00048216 0.542163 -0.142577
Spine  14.471 -2.91171 7.41558
Spine1  12.3804 -1.63571 -0.941098
HEad  -2.25744 11.0758 -11.6392
LeftShoulder1  8.56953 -12.9389 -45.4324
LeftArm  -15.5947 22.9736 -22.1368
LeftForeArm  95.1821 -78.8603 -107.364
LeftHand  -0.25398 0.0180481 5.50724
RightShoulder  4.89944 8.67124 34.2908
RightArm  -13.5146 -25.9031 26.0541
RightForeArm  63.1762 75.2887 123.662
RightHand  1.45992 -17.7989 -14.2225
LeftUpLeg  26.908 6.88838 5.88394
LeftLeg  28.1164 -5.50573 -2.75288
LeftFoot  -6.44411 0.526114 -11.7128
LeftToes  1.06248e-005 4.65855e-005 -8.185e-006
145
root  2.59373 37.3773 -8.60192 -11.9266 54.244 -5.6689
RightUpLeg  -25.2508 -13.3071 3.96081
RightLeg  28.4122 -3.84761 -2.4893
RightFoot  3.49811 0.935846 -7.01176
RightToes  0.00048216 0.542163 -0.142577
Spine  15.4058 -4.30827 9.07544
Spine1  12.1122 -2.83588 0.30232
HEad  -2.32842 11.6695 -11.8086
LeftShoulder1  8.69613 -13.0156 -45.9061
LeftArm  -15.5915 23.2489 -21.1308
LeftForeArm  92.2947 -79.0117 -104.511
LeftHand  -0.25398 0.0180481 5.50724
RightShoulder  5.00848 8.88927 34.4612
RightArm  -12.2825 -24.5511 25.5359
RightForeArm  58.9422 75.7884 120.285
RightHand  1.52657 -17.4061 -15.2758
LeftUpLeg  18.6997 2.2872 5.97991
LeftLeg  41.7296 -2.02897 -1.52361
LeftFoot  7.18579 1.78077 -11.2651
LeftToes  1.06248e-005 4.65855e-005 -8.185e-006
146
root  3.65759 37.2519 -7.55377 -13.2242 57.212 -9.27664
RightUpLeg  -26.5986 -14.8418 5.54034
RightLeg  32.7218 -5.26126 -3.88633
RightFoot  -0.755961 0.720669 -7.78191
RightToes  0.00048216 0.542163 -0.142577
Spine  14.5869 -5.23319 10.912
Spine1  12.7338 -3.72021 1.8851
HEad  -2.21966 11.0952 -10.9919
LeftShoulder1  8.80948 -13.1587 -46.1121
LeftArm  -14.9943 22.1553 -20.218
LeftForeArm  88.4816 -79.163 -100.77
LeftHand  -0.25398 0.0180481 5.50724
RightShoulder  5.03796 8.98953 34.3734
RightArm  -11.4614 -23.6391 25.1295
RightForeArm  54.7222 76.1215 117.526
RightHand  1.57322 -16.74 -16.5647
LeftUpLeg  7.58294 -2.40479 6.30239
LeftLeg  55.2031 0.095896 0.602984
LeftFoot  17.5236 2.39958 -9.71877
LeftToes  1.06248e-005 4.65855e-005 -8.185e-006
147
root  4.83761 37.3953 -6.39095 -12.7326 58.209 -9.9485
RightUpLeg  -25.8556 -14.785 5.8067
RightLeg  34.9993 -5.78478 -4.61243
RightFoot  -4.68789 0.401702 -7.41336
RightToes  0.00048216 0.542163 -0.142577
Spine  13.6495 -4.65874 11.5177
Spine1  13.5708 -3.07755 2.27595
HEad  -1.56174 9.44322 -9.44543
LeftShoulder1  8.89286 -13.3267 -46.0832
LeftArm  -14.3218 20.5078 -19.8364
LeftForeArm  83.5621 -79.2927 -95.8769
LeftHand  -0.25398 0.0180481 5.50724
RightShoulder  5.04881 9.0386 34.303
RightArm  -11.0836 -23.3991 24.8484
RightForeArm  51.1616 76.396 114.97
RightHand  1.55411 -16.1708 -17.1929
LeftUpLeg  -1.53199 -4.12796 5.91836
LeftLeg  64.4077 0.770407 2.35646
LeftFoot  19.0814 2.04561 -7.90681
LeftToes  1.06248e-005 4.65855e-005 -8.185e-006
148
root  6.15862 37.8248 -5.11525 -9.82132 57.9022 -7.77266
RightUpLeg  -23.7597 -14.2716 4.79895
RightLeg  35.1749 -5.80242 -4.65888
RightFoot  -7.35284 0.182023 -6.65963
RightToes  0.00048216 0.542163 -0.142577
Spine  11.9664 -3.2019 10.6117
Spine1  14.3398 -1.71126 1.75415
HEad  -0.319429 7.82928 -8.1514
LeftShoulder1  8.93691 -13.3942 -46.1281
LeftArm  -14.3216 19.5777 -19.9524
LeftForeArm  79.5181 -79.3533 -91.6169
LeftHand  -0.25398 0.0180481 5.50724
RightShoulder  5.09235 9.13366 34.3442
RightArm  -10.6741 -23.2572 24.6171
RightForeArm  47.8989 76.7212 111.685
RightHand  1.44944 -15.687 -16.8444
LeftUpLeg  -9.11168 -3.25418 4.56558
LeftLeg  68.5596 0.85673 3.18298
LeftFoot  14.284 1.13625 -5.35787
LeftToes  1.06248e-005 4.65855e-005 -8.185e-006
149
root  7.52765 38.2689 -3.83856 -6.28116 57.5445 -5.86267
RightUpLeg  -22.0273 -14.8141 4.12655
RightLeg  34.1582 -5.1953 -4.06243
RightFoot  -9.66631 0.0259724 -6.2525
RightToes  0.00048216 0.542163 -0.142577
Spine  8.87489 -1.82152 9.56966
Spine1  15.1745 -0.647118 1.312
HEad  1.15612 6.93653 -7.6012
LeftShoulder1  8.90957 -13.2961 -46.2591
LeftArm  -15.0918 19.8774 -20.2662
LeftForeArm  78.2013 -79.3729 -89.9321
LeftHand  -0.25398 0.0180481 5.50724
RightShoulder  5.11458 9.17358 34.3922
RightArm  -9.98217 -22.7986 24.5392
RightForeArm  45.017 77.0089 108.288
RightHand  1.31789 -15.0563 -16.3938
LeftUpLeg  -16.7906 -1.81442 3.42151
LeftLeg  68.7068 1.07578 3.85522
LeftFoot  8.67298 0.472183 -2.9939
LeftToes  1.06248e-005 4.65855e-005 -8.185e-006
150
root  8.92723 38.7028 -2.53021 -3.44091 57.2303 -4.67544
RightUpLeg  -19.4785 -16.0836 3.74215
RightLeg  31.7991 -3.87195 -2.86921
RightFoot  -11.8048 -0.103785 -5.98609
RightToes  0.00048216 0.542163 -0.142577
Spine  5.72122 -0.603722 8.46249
Spine1  15.7323 0.201781 0.906231
HEad  2.43448 6.43982 -7.4597
LeftShoulder1  8.82194 -13.1405 -46.2307
LeftArm  -16.0771 20.8982 -20.6006
LeftForeArm  78.7496 -79.3801 -90.3106
LeftHand  -0.25398 0.0180481 5.50724
RightShoulder  5.06031 9.04639 34.3688
RightArm  -9.33452 -22.2947 24.8431
RightForeArm  43.3425 77.1644 106.144
RightHand  1.25734 -14.5707 -16.4832
LeftUpLeg  -23.441 -0.126405 2.61232
LeftLeg  65.4205 2.16153 5.76398
LeftFoot  5.23584 0.0491361 -0.561601
LeftToes  1.06248e-005 4.65855e-005 -8.185e-006
